# xmcd
#
# Track frame offsets: 
#        150
#        26842
#        50052
#        74359
#        97973
#        125632
#        148389
#        172026
#        194604
#        219469
#        244764
#        272034
#        297550
#        321357
#
# Disc length: 4584 seconds
#
# Revision: 2
# Processed by: cddbd v1.5.2PL0 Copyright (c) Steve Scherf et al.
# Submitted via: ExactAudioCopy v0.95b4
#
DISCID=ef11e60e
DTITLE=Tran Thai Hoa - Tinh Khuc Le Uyen Phuong
DYEAR=2006
DGENRE=Pop
TTITLE0=Buon Den Bao Gio (Le Uyen Phuong)
TTITLE1=Vung Lay Cua Chung Ta (Le Uyen Phuong)
TTITLE2=Cho Lan Cuoi (Le Uyen Phuong)
TTITLE3=Hay Ngoi Xuong Day (Le Uyen Phuong)
TTITLE4=Da Khuc Cho Tinh Nhan (Le Uyen Phuong)
TTITLE5=Noi Buon Dang Hien (Le Uyen Phuong)
TTITLE6=Da Xanh (Le Uyen Phuong)
TTITLE7=Dem Cho Phien Mua Dong (Le Uyen Phuong)
TTITLE8=Dua Nguoi Tuyet Vong (Le Uyen Phuong)
TTITLE9=Ngoi Lai Tren Doi (Le Uyen Phuong)
TTITLE10=Khong Nhin Nhau Lan Cuoi (Le Uyen Phuong)
TTITLE11=Loi Goi Chan May (Le Uyen Phuong)
TTITLE12=Tinh Khuc Cho Em (Le Uyen Phuong)
TTITLE13=Mot Ngay Mua Dong (Le Uyen Phuong)
EXTD=
EXTT0=
EXTT1=
EXTT2=
EXTT3=
EXTT4=
EXTT5=
EXTT6=
EXTT7=
EXTT8=
EXTT9=
EXTT10=
EXTT11=
EXTT12=
EXTT13=
PLAYORDER=
